PathFileType	4	(X/Y/Z)	G:\Shared drives\HPL_Drive\Nord Sprinting Study\Kristen_Nord_test\Trimmed_Nord000003.trc
DataRate	CameraRate	NumFrames	NumMarkers	Units	OrigDataRate	OrigDataStartFrame	OrigNumFrames
200.00	200.00	      4	52	mm	200.00	200	      1592
Frame#	Time	C7			R_Shoulder			L_Shoulder			Sternum			R_humerus			R_elbow_med			R_elbow_lat			R_forearm			R_wrist_radius			R_wrist_ulna			L_humerus			L_elbow_med			L_elbow_lat			L_forearm			L_wrist_radius			L_wrist_ulna			r.ASIS			r.PSIS			r_IC			L.ASIS			L.PSIS			l_IC			r_thigh1			r_thigh2			r_thigh3			r_thigh4			r_thigh5			r_knee			r_mknee			r_shank_antsup			r_sh2			r_sh3			r_sh4			r_ankle			r_mankle			r_calc			r_5meta			r_toe			L_thigh1			L_thigh2			L_thigh3			L_thigh4			L_knee			L_mknee			L_shank_antsup			L_sh2			L_sh3			L_ankle			L_mankle			L_calc			L_5meta			L_toe			
		X1	Y1	Z1	X2	Y2	Z2	X3	Y3	Z3	X4	Y4	Z4	X5	Y5	Z5	X6	Y6	Z6	X7	Y7	Z7	X8	Y8	Z8	X9	Y9	Z9	X10	Y10	Z10	X11	Y11	Z11	X12	Y12	Z12	X13	Y13	Z13	X14	Y14	Z14	X15	Y15	Z15	X16	Y16	Z16	X17	Y17	Z17	X18	Y18	Z18	X19	Y19	Z19	X20	Y20	Z20	X21	Y21	Z21	X22	Y22	Z22	X23	Y23	Z23	X24	Y24	Z24	X25	Y25	Z25	X26	Y26	Z26	X27	Y27	Z27	X28	Y28	Z28	X29	Y29	Z29	X30	Y30	Z30	X31	Y31	Z31	X32	Y32	Z32	X33	Y33	Z33	X34	Y34	Z34	X35	Y35	Z35	X36	Y36	Z36	X37	Y37	Z37	X38	Y38	Z38	X39	Y39	Z39	X40	Y40	Z40	X41	Y41	Z41	X42	Y42	Z42	X43	Y43	Z43	X44	Y44	Z44	X45	Y45	Z45	X46	Y46	Z46	X47	Y47	Z47	X48	Y48	Z48	X49	Y49	Z49	X50	Y50	Z50	X51	Y51	Z51	X52	Y52	Z52	

200	0.995	1192.07727	504.21194	1262.79504	1308.27075	539.52368	1268.88879	1063.04187	551.16980	1268.39417	1193.56250	627.48102	1202.42444	1468.03040	455.08044	1249.45557	1597.87463	426.04767	1164.49695	1573.08411	370.88678	1214.93457	1607.45215	433.32385	1325.46204	1620.48181	523.36078	1400.50366	1655.59021	492.43686	1410.82251	871.06659	488.24545	1235.12573	757.64594	501.37891	1148.33350	762.79980	438.62585	1192.36768	771.70972	520.39166	1317.21912	743.14709	588.53113	1383.83203	799.05414	588.68188	1382.81567	1316.31616	506.89142	747.22778	1265.60864	356.27039	864.41760	1349.16895	469.17126	850.67029	1078.50867	500.73239	743.69031	1150.44971	356.28494	857.38715	1052.58533	472.17068	834.77228	1384.79187	431.06293	518.75470	1384.46094	408.42307	405.71848	1397.51953	355.49030	387.46198	1391.42908	325.57535	542.50250	1373.45886	304.81018	425.72897	1383.71240	346.76346	308.20547	1255.94946	330.24426	317.08420	1398.85632	218.32950	310.13245	1379.87683	99.53232	319.26138	1393.54468	222.30785	386.52283	1379.05444	110.71791	401.69495	1358.56982	-67.90242	375.77573	1286.03943	-53.30942	341.08850	1300.57117	-86.72079	432.01135	1370.50293	-153.53322	281.59607	1337.29749	-128.99139	227.32838	1011.50024	427.45605	514.87238	1011.49042	397.50699	377.74158	1009.36609	312.21768	545.27051	1020.79932	286.77899	409.45993	1000.38239	316.79648	325.22571	1130.53650	316.23361	305.69592	987.76746	206.37599	315.74896	1005.64520	218.69336	404.33224	1019.97211	99.34505	409.09045	1032.08826	-86.54624	389.12604	1099.87378	-62.21093	332.30511	1087.15430	-86.39590	432.36246	1025.04016	-182.23474	285.21210	1059.21057	-156.46808	224.88985	
201	1.000	1192.18909	506.41193	1262.26807	1308.21948	541.27625	1268.42627	1063.49512	552.89594	1268.02979	1193.58459	629.21906	1201.75037	1467.97278	456.65036	1248.86707	1597.51501	427.31183	1163.71497	1572.87305	372.18384	1214.24158	1607.30103	434.40033	1324.44226	1621.05127	525.10681	1399.38037	1656.02002	494.06934	1409.72156	870.92267	490.06207	1234.17676	757.75183	502.93396	1147.10718	762.64758	440.34482	1191.43091	771.28082	522.51801	1316.02161	742.27118	590.62988	1381.71802	798.46472	591.05597	1381.33191	1316.40271	507.48538	746.86389	1265.58032	357.06598	864.41492	1349.07739	469.92841	850.43445	1078.50708	501.28912	743.31891	1150.42749	357.02414	857.40796	1052.54309	472.97723	834.49951	1384.76196	431.30295	518.68207	1384.42188	408.48645	405.60254	1397.53284	355.54266	387.45459	1391.40735	325.86917	542.55194	1373.45044	304.91531	425.77945	1383.69629	346.76273	308.27240	1255.95947	330.17508	317.09482	1399.36914	218.47992	310.42761	1379.95190	99.52231	319.26315	1393.58997	222.31192	386.56604	1379.21338	110.72249	401.70035	1358.68591	-67.90548	375.85034	1286.11572	-53.38942	341.23911	1300.72913	-86.68188	432.08151	1370.68713	-153.59456	281.80713	1337.42676	-129.11104	227.50545	1011.29291	427.61014	514.68585	1011.35022	397.50702	377.61121	1009.43536	312.38690	545.27136	1020.84851	286.76563	409.45087	1000.42444	316.83167	325.28903	1131.14856	316.74966	306.41055	987.89923	206.36261	315.93698	1005.66156	218.72531	404.34738	1021.48682	98.59640	408.61789	1032.30310	-86.53423	389.18680	1100.04688	-62.15908	332.32483	1087.36926	-86.33949	432.46667	1025.35217	-182.26724	285.27985	1057.90039	-155.87454	226.06258	
202	1.005	1192.03662	508.22455	1261.99097	1308.34167	543.28601	1267.87830	1063.29578	554.83044	1267.44568	1193.51599	630.98071	1201.11743	1467.86877	458.22009	1248.29541	1596.39587	428.77933	1163.10046	1572.56128	373.69400	1213.73523	1606.79016	436.21375	1323.54187	1621.57373	526.93964	1398.22473	1656.54272	495.89151	1408.59155	870.62555	491.98917	1233.48535	757.84009	504.51379	1145.83569	762.64020	442.01456	1190.39209	770.96692	524.69403	1314.71631	741.75238	592.97144	1380.11902	797.87640	593.38312	1379.97510	1316.31970	508.12506	746.50964	1265.50037	357.86639	864.43555	1348.91223	470.79709	850.17377	1078.55164	501.76337	743.03833	1150.31482	357.77701	857.44293	1053.07153	473.72131	834.18402	1384.77051	431.59714	518.49091	1384.40442	408.60086	405.51999	1397.47998	355.61859	387.43948	1391.36938	326.19284	542.58112	1373.55652	305.20468	425.68756	1383.70898	346.79144	308.25327	1255.94995	330.14780	317.10300	1398.85254	218.33281	310.16763	1379.98511	99.55421	319.28943	1393.68384	222.29475	386.57095	1379.26099	110.72561	401.74875	1358.82532	-67.87067	375.91040	1286.19983	-53.38392	341.27649	1300.81812	-86.65031	432.15363	1370.90137	-153.61801	281.92133	1337.59229	-129.21391	227.62004	1011.20319	427.77057	514.51953	1011.22815	397.53729	377.47888	1009.48956	312.55423	545.21277	1020.84241	286.79431	409.47537	1001.08978	316.94284	324.74002	1130.51807	316.32150	305.70920	987.87524	206.38475	315.91278	1005.65881	218.75613	404.39920	1021.61914	98.57754	408.68976	1032.40198	-86.75023	389.36380	1100.23523	-62.07638	332.37006	1087.56433	-86.24744	432.51837	1025.63770	-182.36261	285.44360	1058.10059	-155.89891	226.15865	
203	1.010	1191.87708	510.03455	1261.61426	1308.13831	544.86041	1267.46985	1063.09387	556.75629	1266.84778	1193.47485	632.73114	1200.40588	1467.78589	459.87759	1247.69641	1596.96606	429.80963	1162.12842	1572.24609	375.09128	1213.11890	1607.61829	437.75552	1322.64697	1622.10461	528.83459	1397.03918	1657.04517	497.68442	1407.40723	870.45782	493.76044	1232.61584	757.89417	505.98126	1144.68970	762.58801	443.68665	1189.43652	770.57568	526.76947	1313.53186	741.26019	595.34625	1378.58777	797.54358	595.78430	1378.52869	1316.28174	508.68738	746.16443	1265.43542	358.67758	864.43182	1348.78748	471.72281	849.88184	1078.56738	502.32828	742.69946	1150.30518	358.69876	857.17505	1053.03284	474.53705	833.92505	1384.68835	431.84848	518.41479	1384.37305	408.70569	405.40533	1397.45349	355.72028	387.43808	1391.38074	326.51840	542.58881	1373.55151	305.35474	425.73407	1383.68298	346.79074	308.29205	1255.97290	330.10675	317.11929	1399.32678	218.48840	310.48892	1380.03979	99.56487	319.33243	1393.73389	222.35930	386.58621	1379.18311	109.98626	402.13452	1358.96582	-67.84583	375.96857	1286.18262	-53.42173	341.39807	1300.90649	-86.62470	432.22049	1371.14893	-153.63640	282.08182	1337.80371	-129.23177	227.78140	1010.94293	427.97635	514.42285	1011.15479	397.54620	377.36276	1009.47998	312.76718	545.23291	1020.78107	286.94882	409.63388	1001.00067	317.01926	324.86774	1130.68127	316.39197	306.03531	987.96399	206.34380	315.86209	1005.71820	218.77977	404.42801	1021.70935	98.62596	408.70840	1032.70764	-86.49898	389.36597	1100.43530	-62.00272	332.41965	1087.78345	-86.15683	432.70331	1025.93787	-182.43938	285.56912	1059.85413	-156.58655	225.27609	
